<svg xmlns="http://www.w3.org/2000/svg" version="1.1" xmlns:xlink="http://www.w3.org/1999/xlink" xmlns:svgjs="http://svgjs.dev/svgjs" width="1500" height="768" viewBox="0 0 1500 768"><g transform="matrix(1,0,0,1,-0.9090909090909918,0.8464769060985873)"><svg viewBox="0 0 396 203" data-background-color="#2c3e50" preserveAspectRatio="xMidYMid meet" height="768" width="1500" xmlns="http://www.w3.org/2000/svg" xmlns:xlink="http://www.w3.org/1999/xlink"><g id="tight-bounds" transform="matrix(1,0,0,1,0.2400000000000091,-0.22374324471095974)"><svg viewBox="0 0 395.52 203.44748648942192" height="203.44748648942192" width="395.52"><g><svg viewBox="0 0 395.52 203.44748648942192" height="203.44748648942192" width="395.52"><g transform="matrix(1,0,0,1,0,147.3700477506148)"><svg viewBox="0 0 395.52 56.07743873880712" height="56.07743873880712" width="395.52"><g id="textblocktransform"><svg viewBox="0 0 395.52 56.07743873880712" height="56.07743873880712" width="395.52" id="textblock"><g><rect width="125.13282652108954" height="2.424226776676595" y="43.44056831189831" fill="#b2bbda" data-fill-palette-color="tertiary"></rect><rect width="125.13282652108954" height="2.424226776676595" y="43.44056831189831" x="270.3871734789104" fill="#b2bbda" data-fill-palette-color="tertiary"></rect></g><g><svg viewBox="0 0 395.52 26.881781267224742" height="26.881781267224742" width="395.52"><g transform="matrix(1,0,0,1,0,0)"><svg width="395.52" viewBox="2.15 -33.75 500.20257730644704 34" height="26.881781267224742" data-palette-color="#b2bbda"><path d="M26.05-9.05Q26.05-6.7 24.98-5.03 23.9-3.35 21.45-1.95L21.45-1.95Q19.8-0.95 17.6-0.45 15.4 0.05 13.15 0.05L13.15 0.05Q10.85 0.05 7.45-1.45L7.45-1.45Q5-2.65 3.58-4.3 2.15-5.95 2.15-7.9L2.15-7.9Q2.15-9.25 2.75-9.88 3.35-10.5 4.7-10.5L4.7-10.5Q5.4-10.5 6.15-9.93 6.9-9.35 7.05-8.8L7.05-8.8Q7.75-6.75 9.5-5.68 11.25-4.6 13.85-4.6L13.85-4.6Q16.85-4.6 18.88-5.7 20.9-6.8 20.9-8.65L20.9-8.65Q20.9-10.45 18.7-11.85 16.5-13.25 14.2-13.8L14.2-13.8Q10.9-14.7 8.35-15.95L8.35-15.95Q5.7-17.25 4.4-19.15 3.1-21.05 3.1-23.15L3.1-23.15Q3.1-25.1 4.45-27.13 5.8-29.15 7.65-30.05L7.65-30.05Q8.65-30.55 11.08-31.13 13.5-31.7 14.6-31.7L14.6-31.7Q16.05-31.7 17.8-31.35 19.55-31 20.65-30.35L20.65-30.35Q22.85-29.1 23.9-28.1 24.95-27.1 24.95-25.6L24.95-25.6Q24.95-24.7 24.28-24 23.6-23.3 21.95-23.3L21.95-23.3Q21.55-23.3 21.15-23.65 20.75-24 20.15-24.7L20.15-24.7Q19.35-25.75 18.6-26.1L18.6-26.1Q17.85-26.35 16.43-26.65 15-26.95 13.9-26.95L13.9-26.95Q12.7-26.95 11.4-26.45 10.1-25.95 9.22-25.03 8.35-24.1 8.35-22.9L8.35-22.9Q8.35-21.9 9.28-21.18 10.2-20.45 11.5-20L11.5-20Q13-19.4 14.75-18.95L14.75-18.95Q17.05-18.25 18.53-17.68 20-17.1 21.4-16.25L21.4-16.25Q23.85-14.8 24.95-13.28 26.05-11.75 26.05-9.05L26.05-9.05ZM36.8-31.7Q36.8-30.4 36.75-28.68 36.7-26.95 36.65-26.05L36.65-26.05Q36.5-23.5 36.5-20.95L36.5-20.95Q36.5-19.05 36.65-17L36.65-17Q38.2-19.25 40-20.3 41.8-21.35 44.35-21.35L44.35-21.35Q46.2-21.35 47.8-19.7 49.4-18.05 49.85-15.85L49.85-15.85Q50-13.9 50-11.1L50-11.1Q50-9.3 50.2-6.4L50.2-6.4Q50.3-5.3 50.77-4.35 51.25-3.4 52.15-3.4L52.15-3.4Q52.6-3.4 52.87-3.45 53.15-3.5 53.4-3.5L53.4-3.5Q54.1-3.5 54.37-3.15 54.65-2.8 54.65-2.15L54.65-2.15Q54.65-0.95 53.45-0.35 52.25 0.25 51.25 0.25L51.25 0.25Q47.65 0.25 46.3-2.75L46.3-2.75Q45.55-4.45 45.35-7.18 45.15-9.9 45.15-13.55L45.15-13.55Q45.15-17.15 42.7-17.15L42.7-17.15Q41.35-17.15 39.97-15.73 38.6-14.3 37.7-11.98 36.8-9.65 36.8-7.15L36.8-7.15 36.85-1.95Q36.85-0.85 36-0.33 35.15 0.2 34.4 0.2L34.4 0.2Q33.3 0.2 32.4-0.48 31.5-1.15 31.5-2L31.5-2Q31.85-5.75 31.85-14.55L31.85-14.55Q31.85-16.15 31.6-26.4L31.6-26.4 31.45-31Q31.45-32.1 32.45-32.93 33.45-33.75 34.7-33.75L34.7-33.75Q35.8-33.75 36.3-33.25 36.8-32.75 36.8-31.7L36.8-31.7ZM80.4-2.4Q80.4-1.3 79.22-0.55 78.05 0.2 77.05 0.2L77.05 0.2Q75.15 0.2 74.02-0.28 72.9-0.75 71.95-2.05L71.95-2.05Q70.65-0.9 68.4-0.33 66.15 0.25 64.25 0.25L64.25 0.25Q61.15 0.25 59.15-1.43 57.15-3.1 57.15-6.35L57.15-6.35Q57.15-7.75 57.9-8.93 58.65-10.1 59.95-11L59.95-11Q61.4-11.95 63.25-12.48 65.09-13 67.09-13L67.09-13Q68.15-13 69.59-12.6 71.05-12.2 71.84-11.75L71.84-11.75 71.84-12.55Q71.84-15.25 70.55-16.28 69.25-17.3 66.34-17.3L66.34-17.3Q65.5-17.3 64.67-16.95 63.85-16.6 62.8-16L62.8-16Q61.4-15.25 60.15-15.25L60.15-15.25Q59.7-15.25 59.3-15.88 58.9-16.5 58.9-17L58.9-17Q58.9-18.45 60.27-19.5 61.65-20.55 63.55-21.08 65.45-21.6 66.95-21.6L66.95-21.6Q68.45-21.6 70.4-21.03 72.34-20.45 73.59-19.45L73.59-19.45Q75.09-18.15 75.92-16.43 76.75-14.7 76.75-12.65L76.75-12.65Q76.75-12 76.65-10.7L76.65-10.7Q76.55-9.3 76.55-8.3L76.55-8.3Q76.55-7.85 76.45-6.95L76.45-6.95Q76.34-5.85 76.34-5.2L76.34-5.2Q76.34-4.6 76.8-4.17 77.25-3.75 77.84-3.75L77.84-3.75 79.25-3.8Q79.8-3.8 80.09-3.4 80.4-3 80.4-2.4L80.4-2.4ZM64.3-3.7Q66.45-3.7 67.9-4.15 69.34-4.6 71.4-5.8L71.4-5.8Q71.59-6.65 71.65-8.05L71.65-8.05Q68.9-9.35 67.09-9.35L67.09-9.35Q65.05-9.35 63.45-8.6 61.85-7.85 61.85-5.95L61.85-5.95Q61.85-5 62.65-4.35 63.45-3.7 64.3-3.7L64.3-3.7ZM86.24-32.1Q87.99-31.95 89.29-31.18 90.59-30.4 90.59-28.85L90.59-28.85Q90.59-27.7 89.52-27.03 88.44-26.35 86.94-26.35L86.94-26.35Q85.49-26.35 84.94-27.1 84.39-27.85 84.39-28.65L84.39-28.65Q84.39-30.15 84.72-31.15 85.04-32.15 86.24-32.1L86.24-32.1ZM90.24-18.95L90.24-9.95 90.24-8.5Q90.24-6.55 90.37-4.83 90.49-3.1 90.69-1.35L90.69-1.35Q90.64-0.85 89.94-0.33 89.24 0.2 88.69 0.2L88.69 0.2Q87.74 0.2 86.77-0.18 85.79-0.55 85.59-1.1L85.59-1.1Q85.29-2.7 85.29-3.95L85.29-3.95Q85.29-8.05 85.04-13.15L85.04-13.15Q84.84-17.65 84.84-19.45L84.84-19.45Q84.84-20.35 85.74-21 86.64-21.65 87.64-21.65L87.64-21.65Q89.09-21.65 89.67-21 90.24-20.35 90.24-18.95L90.24-18.95ZM100.34 0.2Q99.34 0.2 98.64-0.15 97.94-0.5 97.79-0.9L97.79-0.9Q97.24-2.9 97.24-6.15L97.24-6.15Q97.24-12.15 97.44-15.9L97.44-15.9Q97.64-20.35 97.64-24.45L97.64-24.45Q97.64-25.65 97.34-27.95L97.34-27.95Q97.29-28.35 97.19-29.4 97.09-30.45 97.09-31.35L97.09-31.35Q97.09-32.45 97.87-33.1 98.64-33.75 99.89-33.75L99.89-33.75Q100.89-33.75 101.52-33.13 102.14-32.5 102.14-31.45L102.14-31.45Q102.14-29.85 102.24-26.95L102.24-26.95Q102.34-24.25 102.34-22.9L102.34-22.9Q102.34-21.4 102.24-18.9L102.24-18.9Q102.14-17.4 102.14-16.7L102.14-16.7Q102.14-14.5 102.19-13.05L102.19-13.05Q104.04-14.9 107.04-17.4 110.04-19.9 111.69-20.9L111.69-20.9Q113.44-21.95 113.99-21.95L113.99-21.95Q115.04-21.95 115.79-21.5 116.54-21.05 116.54-20.2L116.54-20.2Q116.54-19.35 116.29-18.85 116.04-18.35 115.39-17.85L115.39-17.85 108.94-13.15Q110.04-12.6 110.81-11.75 111.59-10.9 112.39-9.65L112.39-9.65Q114.09-6.85 115.12-5.55 116.14-4.25 116.99-4.25L116.99-4.25 118.24-4.3Q118.59-4.3 118.87-3.9 119.14-3.5 119.14-2.75L119.14-2.75Q119.14-1.6 118.02-0.9 116.89-0.2 115.49-0.2L115.49-0.2Q113.54-0.2 112.04-1.73 110.54-3.25 109.19-5.85L109.19-5.85Q107.24-9.55 105.34-10.25L105.34-10.25 102.14-7.65 102.34-2.2Q102.34-0.9 101.67-0.35 100.99 0.2 100.34 0.2L100.34 0.2ZM128.39-31.7Q128.39-30.4 128.34-28.68 128.29-26.95 128.24-26.05L128.24-26.05Q128.09-23.5 128.09-20.95L128.09-20.95Q128.09-19.05 128.24-17L128.24-17Q129.79-19.25 131.59-20.3 133.39-21.35 135.94-21.35L135.94-21.35Q137.79-21.35 139.39-19.7 140.99-18.05 141.44-15.85L141.44-15.85Q141.59-13.9 141.59-11.1L141.59-11.1Q141.59-9.3 141.79-6.4L141.79-6.4Q141.89-5.3 142.36-4.35 142.84-3.4 143.74-3.4L143.74-3.4Q144.19-3.4 144.46-3.45 144.74-3.5 144.99-3.5L144.99-3.5Q145.69-3.5 145.96-3.15 146.24-2.8 146.24-2.15L146.24-2.15Q146.24-0.95 145.04-0.35 143.84 0.25 142.84 0.25L142.84 0.25Q139.24 0.25 137.89-2.75L137.89-2.75Q137.14-4.45 136.94-7.18 136.74-9.9 136.74-13.55L136.74-13.55Q136.74-17.15 134.29-17.15L134.29-17.15Q132.94-17.15 131.56-15.73 130.19-14.3 129.29-11.98 128.39-9.65 128.39-7.15L128.39-7.15 128.44-1.95Q128.44-0.85 127.59-0.33 126.74 0.2 125.99 0.2L125.99 0.2Q124.89 0.2 123.99-0.48 123.09-1.15 123.09-2L123.09-2Q123.44-5.75 123.44-14.55L123.44-14.55Q123.44-16.15 123.19-26.4L123.19-26.4 123.04-31Q123.04-32.1 124.04-32.93 125.04-33.75 126.29-33.75L126.29-33.75Q127.39-33.75 127.89-33.25 128.39-32.75 128.39-31.7L128.39-31.7ZM185.83-27.75Q186.58-26.85 186.88-26.3 187.18-25.75 187.18-25.25L187.18-25.25Q187.18-24.65 186.41-23.85 185.63-23.05 184.88-23.05L184.88-23.05Q183.88-23.05 183.28-23.35 182.68-23.65 182.28-24.3L182.28-24.3Q181.48-25.5 180.33-26.38 179.18-27.25 176.73-27.25L176.73-27.25Q174.63-27.25 171.96-26.3 169.28-25.35 168.13-23.95L168.13-23.95Q167.13-22.7 166.41-20.15 165.68-17.6 165.68-15.2L165.68-15.2Q165.68-12.3 166.96-9.88 168.23-7.45 170.66-6 173.08-4.55 176.48-4.55L176.48-4.55Q178.33-4.55 180.31-5.28 182.28-6 183.73-7.65L183.73-7.65 183.68-7.65Q184.58-8.6 185.93-8.6L185.93-8.6Q186.73-8.6 187.46-7.9 188.18-7.2 188.18-6.5L188.18-6.5Q188.18-5.75 187.96-5.18 187.73-4.6 187.13-3.9L187.13-3.9Q185.08-1.6 182.28-0.75 179.48 0.1 175.58 0.1L175.58 0.1Q172.13 0.1 168.61-1.55 165.08-3.2 163.18-5.55L163.18-5.55Q162.18-7 161.26-9.73 160.33-12.45 160.33-14.15L160.33-14.15Q160.33-18.5 161.66-22.43 162.98-26.35 165.63-28.7L165.63-28.7Q167.38-30.3 170.68-31.1 173.98-31.9 176.73-31.9L176.73-31.9Q180.08-31.9 182.01-30.98 183.93-30.05 185.83-27.75L185.83-27.75ZM212.43-16.05Q212.83-15.35 213.08-14.03 213.33-12.7 213.33-11.65L213.33-11.65Q213.33-9.7 212.48-6.1L212.48-6.1Q209.03 0.2 202.28 0.2L202.28 0.2Q199.78 0.2 197.18-1.45 194.58-3.1 193.58-5.25L193.58-5.25Q192.23-9.55 192.23-10.7L192.23-10.7Q192.23-12.7 193.11-14.95 193.98-17.2 195.33-18.85L195.33-18.85Q196.18-20 198.38-20.83 200.58-21.65 202.38-21.65L202.38-21.65Q205.88-21.65 208.33-20.33 210.78-19 212.43-16.05L212.43-16.05ZM208.08-8Q208.33-8.65 208.33-11.35L208.33-11.35Q208.33-12.8 207.81-14.2 207.28-15.6 206.28-16.6L206.28-16.6Q206.18-16.7 205.73-16.93 205.28-17.15 204.51-17.38 203.73-17.6 202.73-17.6L202.73-17.6Q199.93-17.6 198.63-15.35 197.33-13.1 197.33-10.25L197.33-10.25Q197.33-9.75 197.61-8.35 197.88-6.95 198.08-6.6L198.08-6.6Q198.23-6.25 198.86-5.63 199.48-5 200.41-4.53 201.33-4.05 202.33-4.05L202.33-4.05Q204.58-4.05 205.93-5.13 207.28-6.2 208.08-8L208.08-8ZM249.78-1.75Q249.03-3.15 248.83-4.88 248.63-6.6 248.63-9.65L248.63-9.65Q248.63-12.55 247.83-14.7 247.03-16.85 244.53-16.85L244.53-16.85Q243.58-16.85 242.65-16.28 241.73-15.7 241.28-14.85L241.28-14.85Q240.58-13.5 240.33-11.93 240.08-10.35 240.08-8.3L240.08-8.3Q240.08-7 240.23-5.65L240.23-5.65Q240.23-5.25 240.3-4.38 240.38-3.5 240.38-2.8L240.38-2.8Q240.38 0.2 238.28 0.2L238.28 0.2Q235.53 0.2 235.38-2.7L235.38-2.7Q235.38-4.75 235.43-4.9L235.43-4.9 235.43-7.05Q235.43-8.85 235.28-10.55 235.13-12.25 234.93-13.1L234.93-13.1Q234.48-14.75 233.75-15.65 233.03-16.55 231.48-16.55L231.48-16.55Q229.28-16.55 227.93-14.65L227.93-14.65Q226.98-13.15 226.68-11L226.68-11Q226.38-8.25 226.25-6.68 226.13-5.1 226.13-3.05L226.13-3.05Q226.13-1.6 225.65-0.7 225.18 0.2 223.88 0.2L223.88 0.2Q222.93 0.2 221.9-0.33 220.88-0.85 220.88-1.75L220.88-1.75Q220.88-2.7 221.08-3.65L221.08-3.65Q221.53-6.5 221.53-13.85L221.53-13.85Q221.53-15.05 220.95-16.18 220.38-17.3 219.58-17.3L219.58-17.3Q219.38-17.3 218.85-17.1 218.33-16.9 218.08-16.9L218.08-16.9Q217.43-16.9 216.9-17.5 216.38-18.1 216.38-18.5L216.38-18.5Q216.38-19.75 217.6-20.63 218.83-21.5 220.18-21.5L220.18-21.5Q222.03-21.5 223.33-20.35 224.63-19.2 225.33-17.15L225.33-17.15Q226.48-19.15 228.43-20.38 230.38-21.6 232.78-21.6L232.78-21.6Q234.28-21.6 235.2-21.23 236.13-20.85 236.73-20.18 237.33-19.5 238.28-18.15L238.28-18.15Q239.53-19.75 241.5-20.65 243.48-21.55 245.58-21.55L245.58-21.55Q248.08-21.55 250.08-19.53 252.08-17.5 252.78-14.85L252.78-14.85Q253.13-13.5 253.13-9.65L253.13-9.65 253.33-6.75Q253.58-4.15 255.03-3.6L255.03-3.6Q256.73-3.1 256.73-2.55L256.73-2.55Q256.73-1.35 256.13-0.8L256.13-0.8Q255.68-0.5 254.88-0.15 254.08 0.2 253.63 0.2L253.63 0.2Q250.93 0.2 249.78-1.75L249.78-1.75ZM291.82-1.75Q291.07-3.15 290.88-4.88 290.68-6.6 290.68-9.65L290.68-9.65Q290.68-12.55 289.88-14.7 289.07-16.85 286.57-16.85L286.57-16.85Q285.63-16.85 284.7-16.28 283.77-15.7 283.32-14.85L283.32-14.85Q282.63-13.5 282.38-11.93 282.13-10.35 282.13-8.3L282.13-8.3Q282.13-7 282.27-5.65L282.27-5.65Q282.27-5.25 282.35-4.38 282.43-3.5 282.43-2.8L282.43-2.8Q282.43 0.2 280.32 0.2L280.32 0.2Q277.57 0.2 277.43-2.7L277.43-2.7Q277.43-4.75 277.48-4.9L277.48-4.9 277.48-7.05Q277.48-8.85 277.32-10.55 277.18-12.25 276.98-13.1L276.98-13.1Q276.52-14.75 275.8-15.65 275.07-16.55 273.52-16.55L273.52-16.55Q271.32-16.55 269.98-14.65L269.98-14.65Q269.02-13.15 268.73-11L268.73-11Q268.43-8.25 268.3-6.68 268.18-5.1 268.18-3.05L268.18-3.05Q268.18-1.6 267.7-0.7 267.23 0.2 265.93 0.2L265.93 0.2Q264.98 0.2 263.95-0.33 262.93-0.85 262.93-1.75L262.93-1.75Q262.93-2.7 263.13-3.65L263.13-3.65Q263.57-6.5 263.57-13.85L263.57-13.85Q263.57-15.05 263-16.18 262.43-17.3 261.63-17.3L261.63-17.3Q261.43-17.3 260.9-17.1 260.38-16.9 260.13-16.9L260.13-16.9Q259.48-16.9 258.95-17.5 258.43-18.1 258.43-18.5L258.43-18.5Q258.43-19.75 259.65-20.63 260.88-21.5 262.23-21.5L262.23-21.5Q264.07-21.5 265.38-20.35 266.68-19.2 267.38-17.15L267.38-17.15Q268.52-19.15 270.48-20.38 272.43-21.6 274.82-21.6L274.82-21.6Q276.32-21.6 277.25-21.23 278.18-20.85 278.77-20.18 279.38-19.5 280.32-18.15L280.32-18.15Q281.57-19.75 283.55-20.65 285.52-21.55 287.63-21.55L287.63-21.55Q290.13-21.55 292.13-19.53 294.13-17.5 294.82-14.85L294.82-14.85Q295.18-13.5 295.18-9.65L295.18-9.65 295.38-6.75Q295.63-4.15 297.07-3.6L297.07-3.6Q298.77-3.1 298.77-2.55L298.77-2.55Q298.77-1.35 298.18-0.8L298.18-0.8Q297.73-0.5 296.93-0.15 296.13 0.2 295.68 0.2L295.68 0.2Q292.98 0.2 291.82-1.75L291.82-1.75ZM301.37-16.85Q300.97-16.85 300.65-17.18 300.32-17.5 300.32-17.95L300.32-17.95Q300.32-19.1 301.32-20.1L301.32-20.1Q301.62-20.25 302.52-20.6 303.42-20.95 304.12-20.95L304.12-20.95Q306.02-20.95 307.22-19.93 308.42-18.9 308.42-17L308.42-17Q308.42-16.45 308.22-14.65L308.22-14.65Q308.02-12.55 308.02-11.4L308.02-11.4Q308.02-7.9 308.97-5.75L308.97-5.75Q309.32-5.05 310.07-4.65 310.82-4.25 311.42-4.25L311.42-4.25Q312.87-4.25 313.77-4.75 314.67-5.25 315.72-6.35L315.72-6.35Q316.77-7.45 317.1-8.85 317.42-10.25 317.57-12.7L317.57-12.7Q317.67-14.3 317.77-15.05L317.77-15.05Q318.02-17.45 318.02-19.15L318.02-19.15Q318.02-20.25 318.62-20.98 319.22-21.7 320.27-21.7L320.27-21.7Q320.87-21.7 321.65-21.33 322.42-20.95 322.67-20.45L322.67-20.45Q322.97-19.95 322.97-18.8L322.97-18.8Q322.97-18.2 322.82-17.65L322.82-17.65Q322.47-16.4 322.47-14.65L322.47-14.65 322.52-12.05Q322.52-8.5 323.02-6.8L323.02-6.8Q323.27-6 323.72-5.18 324.17-4.35 324.57-3.8L324.57-3.8Q325.57-2.7 325.87-2.27 326.17-1.85 326.17-1.45L326.17-1.45Q326.17-0.85 325.6-0.33 325.02 0.2 324.37 0.2L324.37 0.2Q322.52 0.2 321.17-1.05 319.82-2.3 319.17-4.3L319.17-4.3Q317.47-2.35 316.02-1.15L316.02-1.15Q315.02-0.45 313.57-0.13 312.12 0.2 310.67 0.2L310.67 0.2Q308.72 0.2 306.72-1.4 304.72-3 304.02-5.1L304.02-5.1Q303.97-5.2 303.75-5.9 303.52-6.6 303.52-8L303.52-8Q303.52-9.85 303.72-12.65L303.72-12.65Q303.87-14.45 303.87-15.95L303.87-15.95Q303.87-16.4 303.55-16.7 303.22-17 302.82-17L302.82-17Q302.52-17 302.15-16.93 301.77-16.85 301.37-16.85L301.37-16.85ZM352.77-3.85Q353.02-3.75 353.57-3.6 354.12-3.45 354.37-3.3 354.62-3.15 354.62-2.85L354.62-2.85Q354.67-1.65 353.75-0.88 352.82-0.1 351.57-0.1L351.57-0.1Q349.62-0.1 348.52-1.15 347.42-2.2 346.92-4.35L346.92-4.35Q346.72-5.2 346.72-6.7L346.72-6.7Q346.72-7.55 346.82-9.45L346.82-9.45Q346.92-11.45 346.92-12.65L346.92-12.65Q346.92-14.4 345.94-15.73 344.97-17.05 343.22-17.05L343.22-17.05Q342.17-17.05 341.02-16.43 339.87-15.8 339.42-14.9L339.42-14.9Q338.67-13.45 338.37-11.75L338.37-11.75Q337.82-8.75 337.82-5.5L337.82-5.5Q337.82-3.95 337.87-3.1L337.87-3.1Q337.87-2.9 337.89-2.33 337.92-1.75 337.8-1.28 337.67-0.8 337.37-0.4L337.37-0.4Q337.12-0.15 336.59 0.03 336.07 0.2 335.62 0.2L335.62 0.2Q334.92 0.2 333.87-0.4 332.82-1 332.67-1.75L332.67-1.75 332.62-2.6Q332.62-3.05 332.72-3.65L332.72-3.65Q333.32-7.15 333.32-9.75L333.32-9.75Q333.32-10.9 333.27-11.55L333.27-11.55 333.22-13.9Q333.22-15.1 332.62-16.23 332.02-17.35 331.22-17.35L331.22-17.35Q330.97-17.35 330.52-17.18 330.07-17 329.77-17L329.77-17Q329.27-17 328.69-17.5 328.12-18 328.12-18.55L328.12-18.55Q328.12-19.6 328.82-20.25L328.82-20.25Q329.57-20.85 330.3-21.2 331.02-21.55 331.97-21.55L331.97-21.55Q332.77-21.55 333.27-21.4 333.77-21.25 334.62-20.75L334.62-20.75Q335.07-20.5 335.67-19.65 336.27-18.8 336.67-17.25L336.67-17.25Q337.97-19.65 339.89-20.63 341.82-21.6 344.82-21.6L344.82-21.6Q345.97-21.6 347.3-20.85 348.62-20.1 349.57-19.1L349.57-19.1Q350.47-18 351.07-16.38 351.67-14.75 351.67-13.45L351.67-13.45Q351.67-12.7 351.57-11L351.57-11Q351.42-9.65 351.42-8.15L351.42-8.15Q351.42-4.65 352.77-3.85L352.77-3.85ZM360.77-32.1Q362.52-31.95 363.82-31.18 365.12-30.4 365.12-28.85L365.12-28.85Q365.12-27.7 364.04-27.03 362.97-26.35 361.47-26.35L361.47-26.35Q360.02-26.35 359.47-27.1 358.92-27.85 358.92-28.65L358.92-28.65Q358.92-30.15 359.24-31.15 359.57-32.15 360.77-32.1L360.77-32.1ZM364.77-18.95L364.77-9.95 364.77-8.5Q364.77-6.55 364.89-4.83 365.02-3.1 365.22-1.35L365.22-1.35Q365.17-0.85 364.47-0.33 363.77 0.2 363.22 0.2L363.22 0.2Q362.27 0.2 361.29-0.18 360.32-0.55 360.12-1.1L360.12-1.1Q359.82-2.7 359.82-3.95L359.82-3.95Q359.82-8.05 359.57-13.15L359.57-13.15Q359.37-17.65 359.37-19.45L359.37-19.45Q359.37-20.35 360.27-21 361.17-21.65 362.17-21.65L362.17-21.65Q363.62-21.65 364.19-21 364.77-20.35 364.77-18.95L364.77-18.95ZM388.76-16.7Q388.76-14.5 386.51-14.5L386.51-14.5Q385.76-14.5 385.26-14.85 384.76-15.2 384.17-15.9L384.17-15.9Q382.67-17.55 381.56-17.55L381.56-17.55Q380.12-17.55 378.74-16.7 377.37-15.85 376.51-14.3 375.67-12.75 375.67-10.85L375.67-10.85Q375.67-8.75 376.49-7.35 377.31-5.95 379.06-4.95L379.06-4.95Q379.72-4.6 380.59-4.4 381.47-4.2 382.12-4.2L382.12-4.2Q383.56-4.2 385.76-5.35L385.76-5.35Q386.56-5.75 387.12-5.95 387.67-6.15 388.26-6.15L388.26-6.15Q388.81-6.15 389.51-5.65 390.22-5.15 390.22-4.4L390.22-4.4Q390.22-2.9 388.81-1.88 387.42-0.85 385.39-0.33 383.37 0.2 381.51 0.2L381.51 0.2Q378.56 0.2 376.04-1.15 373.51-2.5 372.01-4.88 370.51-7.25 370.51-10.25L370.51-10.25Q370.51-13.45 371.97-16.1 373.42-18.75 375.87-20.25 378.31-21.75 381.22-21.75L381.22-21.75Q382.87-21.75 384.62-21.15 386.37-20.55 387.56-19.4 388.76-18.25 388.76-16.7L388.76-16.7ZM417.21-2.4Q417.21-1.3 416.04-0.55 414.86 0.2 413.86 0.2L413.86 0.2Q411.96 0.2 410.84-0.28 409.71-0.75 408.76-2.05L408.76-2.05Q407.46-0.9 405.21-0.33 402.96 0.25 401.06 0.25L401.06 0.25Q397.96 0.25 395.96-1.43 393.96-3.1 393.96-6.35L393.96-6.35Q393.96-7.75 394.71-8.93 395.46-10.1 396.76-11L396.76-11Q398.21-11.95 400.06-12.48 401.91-13 403.91-13L403.91-13Q404.96-13 406.41-12.6 407.86-12.2 408.66-11.75L408.66-11.75 408.66-12.55Q408.66-15.25 407.36-16.28 406.06-17.3 403.16-17.3L403.16-17.3Q402.31-17.3 401.49-16.95 400.66-16.6 399.61-16L399.61-16Q398.21-15.25 396.96-15.25L396.96-15.25Q396.51-15.25 396.11-15.88 395.71-16.5 395.71-17L395.71-17Q395.71-18.45 397.09-19.5 398.46-20.55 400.36-21.08 402.26-21.6 403.76-21.6L403.76-21.6Q405.26-21.6 407.21-21.03 409.16-20.45 410.41-19.45L410.41-19.45Q411.91-18.15 412.74-16.43 413.56-14.7 413.56-12.65L413.56-12.65Q413.56-12 413.46-10.7L413.46-10.7Q413.36-9.3 413.36-8.3L413.36-8.3Q413.36-7.85 413.26-6.95L413.26-6.95Q413.16-5.85 413.16-5.2L413.16-5.2Q413.16-4.6 413.61-4.17 414.06-3.75 414.66-3.75L414.66-3.75 416.06-3.8Q416.61-3.8 416.91-3.4 417.21-3 417.21-2.4L417.21-2.4ZM401.11-3.7Q403.26-3.7 404.71-4.15 406.16-4.6 408.21-5.8L408.21-5.8Q408.41-6.65 408.46-8.05L408.46-8.05Q405.71-9.35 403.91-9.35L403.91-9.35Q401.86-9.35 400.26-8.6 398.66-7.85 398.66-5.95L398.66-5.95Q398.66-5 399.46-4.35 400.26-3.7 401.11-3.7L401.11-3.7ZM422.91-17.1L420.51-17.3Q419.81-17.4 419.38-17.9 418.96-18.4 418.96-19.1L418.96-19.1Q418.96-19.45 419.13-19.85 419.31-20.25 419.66-20.55L419.66-20.55Q420.31-21.2 423.16-21.2L423.16-21.2Q423.56-23.15 423.56-25.15L423.56-25.15Q423.56-25.9 423.51-26.45 423.46-27 423.46-27.3L423.46-27.3Q423.46-28.4 424.29-28.95 425.11-29.5 426.16-29.5L426.16-29.5Q427.46-29.5 427.94-28.85 428.41-28.2 428.41-26.45L428.41-26.45Q428.41-23.85 427.96-21.35L427.96-21.35Q428.76-21.35 430.16-21.45L430.16-21.45Q432.06-21.55 432.91-21.55L432.91-21.55Q433.76-21.55 434.38-21.13 435.01-20.7 435.01-19.95L435.01-19.95Q435.01-18 433.26-17.65L433.26-17.65Q431.41-17.2 427.51-17.1L427.51-17.1Q427.36-15.15 427.36-12.85L427.36-12.85Q427.36-9.25 427.81-6.95L427.81-6.95Q428.11-5.35 428.84-4.63 429.56-3.9 431.01-3.9L431.01-3.9Q431.86-3.9 432.76-4.35L432.76-4.35Q433.36-4.7 433.86-4.7L433.86-4.7Q434.56-4.7 434.88-4.25 435.21-3.8 435.21-3.05L435.21-3.05Q435.21-1.65 433.71-0.73 432.21 0.2 429.86 0.2L429.86 0.2Q428.41 0.2 426.94-0.5 425.46-1.2 424.46-2.25L424.46-2.25Q424.31-2.4 423.91-3.4 423.51-4.4 423.21-5.55L423.21-5.55Q422.71-7.9 422.71-12.15L422.71-12.15Q422.71-14 422.91-17.1L422.91-17.1ZM441.86-32.1Q443.61-31.95 444.91-31.18 446.21-30.4 446.21-28.85L446.21-28.85Q446.21-27.7 445.13-27.03 444.06-26.35 442.56-26.35L442.56-26.35Q441.11-26.35 440.56-27.1 440.01-27.85 440.01-28.65L440.01-28.65Q440.01-30.15 440.33-31.15 440.66-32.15 441.86-32.1L441.86-32.1ZM445.86-18.95L445.86-9.95 445.86-8.5Q445.86-6.55 445.98-4.83 446.11-3.1 446.31-1.35L446.31-1.35Q446.26-0.85 445.56-0.33 444.86 0.2 444.31 0.2L444.31 0.2Q443.36 0.2 442.38-0.18 441.41-0.55 441.21-1.1L441.21-1.1Q440.91-2.7 440.91-3.95L440.91-3.95Q440.91-8.05 440.66-13.15L440.66-13.15Q440.46-17.65 440.46-19.45L440.46-19.45Q440.46-20.35 441.36-21 442.26-21.65 443.26-21.65L443.26-21.65Q444.71-21.65 445.28-21 445.86-20.35 445.86-18.95L445.86-18.95ZM471.91-16.05Q472.31-15.35 472.56-14.03 472.81-12.7 472.81-11.65L472.81-11.65Q472.81-9.7 471.96-6.1L471.96-6.1Q468.51 0.2 461.76 0.2L461.76 0.2Q459.26 0.2 456.66-1.45 454.06-3.1 453.06-5.25L453.06-5.25Q451.71-9.55 451.71-10.7L451.71-10.7Q451.71-12.7 452.58-14.95 453.46-17.2 454.81-18.85L454.81-18.85Q455.66-20 457.86-20.83 460.06-21.65 461.86-21.65L461.86-21.65Q465.36-21.65 467.81-20.33 470.26-19 471.91-16.05L471.91-16.05ZM467.56-8Q467.81-8.65 467.81-11.35L467.81-11.35Q467.81-12.8 467.28-14.2 466.76-15.6 465.76-16.6L465.76-16.6Q465.66-16.7 465.21-16.93 464.76-17.15 463.98-17.38 463.21-17.6 462.21-17.6L462.21-17.6Q459.41-17.6 458.11-15.35 456.81-13.1 456.81-10.25L456.81-10.25Q456.81-9.75 457.08-8.35 457.36-6.95 457.56-6.6L457.56-6.6Q457.71-6.25 458.33-5.63 458.96-5 459.88-4.53 460.81-4.05 461.81-4.05L461.81-4.05Q464.06-4.05 465.41-5.13 466.76-6.2 467.56-8L467.56-8ZM500.5-3.85Q500.75-3.75 501.3-3.6 501.85-3.45 502.1-3.3 502.35-3.15 502.35-2.85L502.35-2.85Q502.4-1.65 501.48-0.88 500.55-0.1 499.3-0.1L499.3-0.1Q497.35-0.1 496.25-1.15 495.15-2.2 494.65-4.35L494.65-4.35Q494.45-5.2 494.45-6.7L494.45-6.7Q494.45-7.55 494.55-9.45L494.55-9.45Q494.65-11.45 494.65-12.65L494.65-12.65Q494.65-14.4 493.68-15.73 492.7-17.05 490.95-17.05L490.95-17.05Q489.9-17.05 488.75-16.43 487.6-15.8 487.15-14.9L487.15-14.9Q486.4-13.45 486.1-11.75L486.1-11.75Q485.55-8.75 485.55-5.5L485.55-5.5Q485.55-3.95 485.6-3.1L485.6-3.1Q485.6-2.9 485.63-2.33 485.65-1.75 485.53-1.28 485.4-0.8 485.1-0.4L485.1-0.4Q484.85-0.15 484.33 0.03 483.8 0.2 483.35 0.2L483.35 0.2Q482.65 0.2 481.6-0.4 480.55-1 480.4-1.75L480.4-1.75 480.35-2.6Q480.35-3.05 480.45-3.65L480.45-3.65Q481.05-7.15 481.05-9.75L481.05-9.75Q481.05-10.9 481-11.55L481-11.55 480.95-13.9Q480.95-15.1 480.35-16.23 479.75-17.35 478.95-17.35L478.95-17.35Q478.7-17.35 478.25-17.18 477.8-17 477.5-17L477.5-17Q477-17 476.43-17.5 475.85-18 475.85-18.55L475.85-18.55Q475.85-19.6 476.55-20.25L476.55-20.25Q477.3-20.85 478.03-21.2 478.75-21.55 479.7-21.55L479.7-21.55Q480.5-21.55 481-21.4 481.5-21.25 482.35-20.75L482.35-20.75Q482.8-20.5 483.4-19.65 484-18.8 484.4-17.25L484.4-17.25Q485.7-19.65 487.63-20.63 489.55-21.6 492.55-21.6L492.55-21.6Q493.7-21.6 495.03-20.85 496.35-20.1 497.3-19.1L497.3-19.1Q498.2-18 498.8-16.38 499.4-14.75 499.4-13.45L499.4-13.45Q499.4-12.7 499.3-11L499.3-11Q499.15-9.65 499.15-8.15L499.15-8.15Q499.15-4.65 500.5-3.85L500.5-3.85Z" opacity="1" transform="matrix(1,0,0,1,0,0)" fill="#b2bbda" class="wordmark-text-0" data-fill-palette-color="primary" id="text-0"></path></svg></g></svg></g><g transform="matrix(1,0,0,1,125.13282652108954,33.227924661666094)"><svg viewBox="0 0 145.2543469578209 22.84951407714103" height="22.84951407714103" width="145.2543469578209"><g transform="matrix(1,0,0,1,8,0)"><svg width="129.2543469578209" viewBox="2.35 -41.65 257.08 45.449999999999996" height="22.84951407714103" data-palette-color="#b2bbda"><path d="M25.7 3.7L25.7 3.7Q25.6 3.75 25.5 3.75 25.4 3.75 25.1 3.75L25.1 3.75Q24.4 3.75 23.48 3.53 22.55 3.3 21.68 2.98 20.8 2.65 20.18 2.25 19.55 1.85 19.4 1.55L19.4 1.55Q19.35 0.85 19.35 0.1 19.35-0.65 19.35-1.35L19.35-1.35Q19.35-6.95 20.18-13.05 21-19.15 22.9-26.25L22.9-26.25Q23.1-26.95 23.33-28.03 23.55-29.1 23.8-30.35L23.8-30.35Q22.6-29.4 20.95-27.33 19.3-25.25 17.48-22.43 15.65-19.6 13.83-16.23 12-12.85 10.5-9.38 9-5.9 7.93-2.5 6.85 0.9 6.6 3.8L6.6 3.8Q4.2 3.1 3.28 2.4 2.35 1.7 2.35 0.7L2.35 0.7Q2.35-0.2 2.9-1.85 3.45-3.5 4.45-5.75 5.45-8 6.9-10.78 8.35-13.55 10.1-16.75L10.1-16.75Q12.1-20.4 14.03-23.6 15.95-26.8 17.8-29.4 19.65-32 21.43-33.9 23.2-35.8 24.95-36.8L24.95-36.8Q25.65-36.8 26.83-36.45 28-36.1 29.13-35.6 30.25-35.1 31.13-34.58 32-34.05 32.1-33.7L32.1-33.7Q31.4-32.3 30.45-29.5 29.5-26.7 28.53-23.15 27.55-19.6 26.68-15.63 25.8-11.65 25.3-8L25.3-8Q26.45-10.75 27.98-13.73 29.5-16.7 31.2-19.63 32.9-22.55 34.68-25.3 36.45-28.05 38.15-30.33 39.85-32.6 41.33-34.3 42.8-36 43.95-36.8L43.95-36.8Q44.65-36.8 45.83-36.45 47-36.1 48.13-35.6 49.25-35.1 50.13-34.58 51-34.05 51.1-33.7L51.1-33.7Q49.5-30.85 48.3-26.75 47.1-22.65 46.28-18.15 45.45-13.65 45.03-9.22 44.6-4.8 44.6-1.3L44.6-1.3Q44.6-0.15 44.6 1.1 44.6 2.35 44.7 3.7L44.7 3.7Q44 3.7 43.03 3.53 42.05 3.35 41.13 3.05 40.2 2.75 39.45 2.38 38.7 2 38.4 1.55L38.4 1.55Q38.35 0.85 38.35 0.1 38.35-0.65 38.35-1.35L38.35-1.35Q38.35-6.95 39.18-13.05 40-19.15 41.9-26.25L41.9-26.25Q42.1-26.95 42.35-28.15 42.6-29.35 42.85-30.65L42.85-30.65Q41.45-29.95 39.68-27.98 37.9-26 36.08-23.18 34.25-20.35 32.48-16.9 30.7-13.45 29.28-9.88 27.85-6.3 26.88-2.78 25.9 0.75 25.7 3.7ZM56.5 1.75L56.5 1.75Q53.65 1.45 51.95-0.75 50.25-2.95 50.25-6.35L50.25-6.35Q50.25-8.35 50.85-10.5 51.45-12.65 52.55-14.68 53.65-16.7 55.15-18.5 56.65-20.3 58.4-21.6L58.4-21.6Q61.15-23.65 63.55-23.65L63.55-23.65Q65.15-22.8 66.7-20.1L66.7-20.1Q66.95-20.1 67.15-20.13 67.35-20.15 67.6-20.15L67.6-20.15Q70.25-20.15 70.25-15.45L70.25-15.45Q70.25-12.3 69.22-9.47 68.2-6.65 66.37-4.35 64.55-2.05 62.02-0.48 59.5 1.1 56.5 1.75ZM59.05-14L59.05-14Q58.2-12.85 57.45-11.5 56.7-10.15 56.15-8.78 55.6-7.4 55.3-6.13 55-4.85 55-3.85L55-3.85Q55-2.65 55.4-1.55 55.8-0.45 56.3-0.3L56.3-0.3Q58.55-0.8 60.42-2.18 62.3-3.55 63.67-5.6 65.05-7.65 65.82-10.25 66.6-12.85 66.6-15.8L66.6-15.8Q66.6-17.1 66.45-17.85 66.3-18.6 65.95-19.15L65.95-19.15Q63.75-18.5 62.02-17.05 60.3-15.6 59.05-14ZM77.25 0.35L77.25 0.35Q79.55-1.2 81.75-3.63 83.95-6.05 85.75-8.88 87.55-11.7 88.8-14.75 90.05-17.8 90.5-20.6L90.5-20.6Q90.5-21.2 89.84-21.4L89.84-21.4Q89.15-21.4 87.92-20.18 86.7-18.95 85.22-17.05 83.75-15.15 82.22-12.8 80.7-10.45 79.45-8.13 78.2-5.8 77.32-3.78 76.45-1.75 76.34-0.5L76.34-0.5Q75.84-0.5 75.5-1.5L75.5-1.5Q75.39-1.75 75.14-2.02 74.89-2.3 74.34-2.7L74.34-2.7Q74.09-2.9 73.84-3.18 73.59-3.45 73.5-3.65L73.5-3.65Q73.3-4.05 73.3-4.95L73.3-4.95Q73.3-7.9 74.05-11.6 74.8-15.3 76.02-19.15 77.25-23 78.9-26.73 80.55-30.45 82.32-33.55 84.09-36.65 85.9-38.8 87.7-40.95 89.3-41.65L89.3-41.65Q89.8-41.5 90.5-41.15 91.2-40.8 91.9-40.35 92.59-39.9 93.22-39.45 93.84-39 94.15-38.65L94.15-38.65Q88.65-34.2 84.62-27.23 80.59-20.25 78.05-10.75L78.05-10.75Q79.45-13.35 81.2-15.78 82.95-18.2 84.67-20.05 86.4-21.9 87.97-23 89.55-24.1 90.59-24.1L90.59-24.1Q91.4-23.9 92.15-23.4 92.9-22.9 93.5-22.18 94.09-21.45 94.5-20.63 94.9-19.8 95-18.9L95-18.9Q94.95-16.8 94.27-14.43 93.59-12.05 92.47-9.75 91.34-7.45 89.92-5.35 88.5-3.25 86.92-1.68 85.34-0.1 83.77 0.85 82.2 1.8 80.8 1.8L80.8 1.8Q80.2 1.8 79.57 1.68 78.95 1.55 78.42 1.33 77.9 1.1 77.57 0.85 77.25 0.6 77.25 0.35ZM96.29-3.35L96.29-3.35Q96.29-3.8 96.37-4.48 96.44-5.15 96.64-6.28 96.84-7.4 97.17-9 97.49-10.6 97.99-12.85L97.99-12.85Q98.09-13.35 98.44-14.45 98.79-15.55 99.37-16.78 99.94-18 100.77-19.15 101.59-20.3 102.74-20.85L102.74-20.85Q103.59-20.65 104.99-19.83 106.39-19 107.39-17.55L107.39-17.55Q106.24-16.25 105.47-14.95 104.69-13.65 104.07-12.25 103.44-10.85 102.92-9.35 102.39-7.85 101.74-6.2L101.74-6.2Q101.19-4.8 100.74-3.33 100.29-1.85 100.24-0.75L100.24-0.75Q100.24 0.15 100.22 0.53 100.19 0.9 99.94 0.9L99.94 0.9Q99.74 0.9 99.14 0.65 98.54 0.4 97.92-0.13 97.29-0.65 96.79-1.45 96.29-2.25 96.29-3.35ZM105.84-25.05L105.84-25.05Q105.84-25.35 105.99-25.95L105.99-25.95Q105.74-26.2 105.57-26.7 105.39-27.2 105.39-27.6L105.39-27.6Q105.39-28.05 105.52-28.83 105.64-29.6 105.84-30.5 106.04-31.4 106.34-32.38 106.64-33.35 106.94-34.15L106.94-34.15Q107.54-34.15 108.42-33.83 109.29-33.5 110.19-32.98 111.09-32.45 111.84-31.83 112.59-31.2 112.99-30.65L112.99-30.65Q112.44-30.1 111.54-29.13 110.64-28.15 109.79-27.08 108.94-26 108.24-25.05 107.54-24.1 107.34-23.7L107.34-23.7Q106.74-23.8 106.29-24.23 105.84-24.65 105.84-25.05ZM107.99-3.2L107.99-3.2Q107.99-5.4 109.04-9.38 110.09-13.35 111.99-18.65L111.99-18.65Q115.09-27.1 117.82-32.73 120.54-38.35 123.14-41.5L123.14-41.5Q123.74-41.4 124.62-41 125.49-40.6 126.34-40.13 127.19-39.65 127.87-39.15 128.54-38.65 128.74-38.35L128.74-38.35Q124.84-33.75 121.89-28.45 118.94-23.15 116.49-16.3L116.49-16.3Q114.39-10.4 113.29-5.68 112.19-0.95 112.19 2.2L112.19 2.2Q112.19 3.05 112.19 3.25 112.19 3.45 112.24 3.65L112.24 3.65Q111.54 3.55 111.04 3.3 110.54 3.05 110.39 2.7L110.39 2.7Q110.29 2.45 109.84 1.98 109.39 1.5 109.04 1.25L109.04 1.25Q108.59 0.95 108.29-0.33 107.99-1.6 107.99-3.2ZM137.54-20.7L137.54-20.7Q137.34-17.6 136.44-15.38 135.54-13.15 133.86-11.48 132.19-9.8 129.79-8.45 127.39-7.1 124.19-5.85L124.19-5.85Q124.19-5.55 124.16-5.23 124.14-4.9 124.14-4.55L124.14-4.55Q124.14-3.9 124.24-3.2 124.34-2.5 124.59-1.9 124.84-1.3 125.29-0.93 125.74-0.55 126.44-0.55L126.44-0.55Q127.79-0.55 129.09-1.15 130.39-1.75 131.56-2.63 132.74-3.5 133.76-4.53 134.79-5.55 135.59-6.4L135.59-6.4Q136.09-5.95 136.44-5.55L136.44-5.55Q134.19-2.55 131.51-0.58 128.84 1.4 126.44 1.95L126.44 1.95Q122.99 1.55 121.06-0.58 119.14-2.7 119.14-5.7L119.14-5.7Q119.14-7.75 119.71-9.88 120.29-12 121.31-13.98 122.34-15.95 123.71-17.7 125.09-19.45 126.66-20.75 128.24-22.05 129.91-22.8 131.59-23.55 133.24-23.55L133.24-23.55Q135.54-23.25 137.54-20.7ZM134.09-19.05L134.09-19.05Q132.74-18.85 131.29-17.95 129.84-17.05 128.56-15.55 127.29-14.05 126.24-12.05 125.19-10.05 124.59-7.75L124.59-7.75Q128.59-9.75 131.24-12.68 133.89-15.6 134.09-19.05ZM172.58 3.7L172.58 3.7Q172.48 3.75 172.38 3.75 172.28 3.75 171.98 3.75L171.98 3.75Q171.28 3.75 170.36 3.53 169.43 3.3 168.56 2.98 167.68 2.65 167.06 2.25 166.43 1.85 166.28 1.55L166.28 1.55Q166.23 0.85 166.23 0.1 166.23-0.65 166.23-1.35L166.23-1.35Q166.23-6.95 167.06-13.05 167.88-19.15 169.78-26.25L169.78-26.25Q169.98-26.95 170.21-28.03 170.43-29.1 170.68-30.35L170.68-30.35Q169.48-29.4 167.83-27.33 166.18-25.25 164.36-22.43 162.53-19.6 160.71-16.23 158.88-12.85 157.38-9.38 155.88-5.9 154.81-2.5 153.73 0.9 153.48 3.8L153.48 3.8Q151.08 3.1 150.16 2.4 149.23 1.7 149.23 0.7L149.23 0.7Q149.23-0.2 149.78-1.85 150.33-3.5 151.33-5.75 152.33-8 153.78-10.78 155.23-13.55 156.98-16.75L156.98-16.75Q158.98-20.4 160.91-23.6 162.83-26.8 164.68-29.4 166.53-32 168.31-33.9 170.08-35.8 171.83-36.8L171.83-36.8Q172.53-36.8 173.71-36.45 174.88-36.1 176.01-35.6 177.13-35.1 178.01-34.58 178.88-34.05 178.98-33.7L178.98-33.7Q178.28-32.3 177.33-29.5 176.38-26.7 175.41-23.15 174.43-19.6 173.56-15.63 172.68-11.65 172.18-8L172.18-8Q173.33-10.75 174.86-13.73 176.38-16.7 178.08-19.63 179.78-22.55 181.56-25.3 183.33-28.05 185.03-30.33 186.73-32.6 188.21-34.3 189.68-36 190.83-36.8L190.83-36.8Q191.53-36.8 192.71-36.45 193.88-36.1 195.01-35.6 196.13-35.1 197.01-34.58 197.88-34.05 197.98-33.7L197.98-33.7Q196.38-30.85 195.18-26.75 193.98-22.65 193.16-18.15 192.33-13.65 191.91-9.22 191.48-4.8 191.48-1.3L191.48-1.3Q191.48-0.15 191.48 1.1 191.48 2.35 191.58 3.7L191.58 3.7Q190.88 3.7 189.91 3.53 188.93 3.35 188.01 3.05 187.08 2.75 186.33 2.38 185.58 2 185.28 1.55L185.28 1.55Q185.23 0.85 185.23 0.1 185.23-0.65 185.23-1.35L185.23-1.35Q185.23-6.95 186.06-13.05 186.88-19.15 188.78-26.25L188.78-26.25Q188.98-26.95 189.23-28.15 189.48-29.35 189.73-30.65L189.73-30.65Q188.33-29.95 186.56-27.98 184.78-26 182.96-23.18 181.13-20.35 179.36-16.9 177.58-13.45 176.16-9.88 174.73-6.3 173.76-2.78 172.78 0.75 172.58 3.7ZM214.83-20.2L214.83-20.2Q215.33-20.2 216.01-20.03 216.68-19.85 217.23-19.58 217.78-19.3 218.16-19 218.53-18.7 218.53-18.45L218.53-18.45Q217.53-16.35 216.68-14.23 215.83-12.1 215.23-10.15 214.63-8.2 214.31-6.5 213.98-4.8 213.98-3.55L213.98-3.55Q213.98-2.15 214.28-1.23 214.58-0.3 215.28 0.1L215.28 0.1Q214.68 0.5 213.73 0.75 212.78 1 212.03 1L212.03 1Q209.33 1 209.33-2.7L209.33-2.7Q209.33-5.55 211.23-10.5L211.23-10.5Q210.23-8.2 208.93-6.18 207.63-4.15 206.28-2.6 204.93-1.05 203.56-0.08 202.18 0.9 201.03 1.1L201.03 1.1Q199.18 1 198.03-0.68 196.88-2.35 196.88-4.95L196.88-4.95Q196.88-7.75 198.08-10.85 199.28-13.95 201.16-16.6 203.03-19.25 205.23-21.03 207.43-22.8 209.48-22.9L209.48-22.9Q209.98-22.75 210.61-22.3 211.23-21.85 211.81-21.25 212.38-20.65 212.78-20.03 213.18-19.4 213.23-18.95L213.23-18.95Q211.23-18.65 209.11-17 206.98-15.35 205.26-13.03 203.53-10.7 202.43-8.05 201.33-5.4 201.33-3.1L201.33-3.1Q201.33-2.15 202.03-1.9L202.03-1.9Q203.48-2.2 205.38-4.38 207.28-6.55 209.98-11.1L209.98-11.1Q210.48-12 211.11-13.1 211.73-14.2 212.38-15.4 213.03-16.6 213.66-17.82 214.28-19.05 214.83-20.2ZM219.88-1L219.88-1Q220.13-2.45 220.75-4.83 221.38-7.2 222.23-9.88 223.08-12.55 224.03-15.25 224.98-17.95 225.88-20.1L225.88-20.1Q226.53-21.65 227.03-22.53 227.53-23.4 228.13-24L228.13-24Q228.83-23.9 229.58-23.65 230.33-23.4 231.03-23.05 231.73-22.7 232.28-22.33 232.83-21.95 233.13-21.6L233.13-21.6Q231.78-20 230.75-17.95 229.73-15.9 228.68-12.7L228.68-12.7Q231.38-15.1 233.45-17.3 235.53-19.5 237.33-22.2L237.33-22.2Q237.63-22.45 238.38-22.45L238.38-22.45Q239.08-22.45 239.73-22.23 240.38-22 240.63-21.6L240.63-21.6Q239.73-19.2 239.73-16.85L239.73-16.85Q239.73-14.65 240.38-13.55L240.38-13.55Q240.33-13.25 239.7-12.4 239.08-11.55 238.33-10.8L238.33-10.8Q236.98-11.5 235.93-12.73 234.88-13.95 234.38-15.4L234.38-15.4Q232.03-13.75 230.38-12.18 228.73-10.6 227.55-8.68 226.38-6.75 225.55-4.25 224.73-1.75 223.98 1.7L223.98 1.7Q223.53 1.65 222.9 1.38 222.28 1.1 221.65 0.7 221.03 0.3 220.53-0.15 220.03-0.6 219.88-1ZM247.03-19.15L244.18-19.15Q243.93-19.45 243.73-20.43 243.53-21.4 243.53-22.1L243.53-22.1Q244.83-22 246.03-21.93 247.23-21.85 248.23-21.8L248.23-21.8Q248.98-23.3 249.85-24.78 250.73-26.25 251.55-27.48 252.38-28.7 253.1-29.55 253.83-30.4 254.23-30.65L254.23-30.65Q254.73-30.65 255.5-30.48 256.28-30.3 257.08-30.03 257.88-29.75 258.53-29.45 259.18-29.15 259.43-28.85L259.43-28.85Q257.93-26.95 256.85-25.33 255.78-23.7 254.53-21.6L254.53-21.6Q255.53-21.6 256.55-21.65 257.58-21.7 258.63-21.8L258.63-21.8Q258.88-21.55 259.03-21.18 259.18-20.8 259.18-20.4L259.18-20.4Q256.73-19.5 253.23-19.4L253.23-19.4Q251.98-17 251-14.63 250.03-12.25 249.35-10.05 248.68-7.85 248.3-5.9 247.93-3.95 247.93-2.4L247.93-2.4Q247.93-0.2 249.58 0.05L249.58 0.05Q251.08-0.15 252.43-0.7 253.78-1.25 254.83-2.1L254.83-2.1Q255.13-1.65 255.18-1.35L255.18-1.35Q254.88-0.9 254.15-0.3 253.43 0.3 252.58 0.88 251.73 1.45 250.93 1.85 250.13 2.25 249.73 2.3L249.73 2.3Q248.48 2.25 247.23 1.75 245.98 1.25 244.95 0.5 243.93-0.25 243.28-1.18 242.63-2.1 242.63-3L242.63-3Q242.63-4.2 242.95-6.03 243.28-7.85 243.88-10 244.48-12.15 245.28-14.5 246.08-16.85 247.03-19.15L247.03-19.15Z" opacity="1" transform="matrix(1,0,0,1,0,0)" fill="#b2bbda" class="slogan-text-1" data-fill-palette-color="secondary" id="text-1"></path></svg></g></svg></g></svg></g></svg></g><g transform="matrix(1,0,0,1,130.42111951913395,0)"><svg viewBox="0 0 134.67776096173208 134.67776096173208" height="134.67776096173208" width="134.67776096173208"><g><svg></svg></g><g id="icon-0"><svg viewBox="0 0 134.67776096173208 134.67776096173208" height="134.67776096173208" width="134.67776096173208"><g><path d="M0 67.339c0-37.19 30.149-67.339 67.339-67.339 37.19 0 67.339 30.149 67.339 67.339 0 37.19-30.149 67.339-67.339 67.339-37.19 0-67.339-30.149-67.339-67.339zM67.339 132.254c35.851 0 64.915-29.063 64.915-64.915 0-35.851-29.063-64.915-64.915-64.915-35.851 0-64.915 29.063-64.915 64.915 0 35.851 29.063 64.915 64.915 64.915z" data-fill-palette-color="tertiary" fill="#b2bbda" stroke="transparent"></path></g><g transform="matrix(1,0,0,1,43.755782217484395,30.079242257789765)"><svg viewBox="0 0 47.166196526763294 74.51927644615255" height="74.51927644615255" width="47.166196526763294"><g><svg xmlns="http://www.w3.org/2000/svg" xmlns:xlink="http://www.w3.org/1999/xlink" version="1.1" x="0" y="0" viewBox="24.525000000000002 9.75 50.95100000000001 80.49900000000001" enable-background="new 0 0 100 100" xml:space="preserve" height="74.51927644615255" width="47.166196526763294" class="icon-cg-0" data-fill-palette-color="accent" id="cg-0"><path d="M72.281 9.75H27.719c-1.765 0-3.194 1.43-3.194 3.194v74.111c0 1.764 1.43 3.194 3.194 3.194h44.563c1.765 0 3.194-1.431 3.194-3.194V12.944C75.476 11.18 74.046 9.75 72.281 9.75zM43.291 14.622h13.418c0.926 0 1.677 0.75 1.677 1.677 0 0.926-0.751 1.677-1.677 1.677H43.291c-0.926 0-1.677-0.751-1.677-1.677C41.614 15.372 42.365 14.622 43.291 14.622zM50 86.257c-3.087 0-5.591-2.503-5.591-5.59 0-3.088 2.504-5.59 5.591-5.59s5.591 2.502 5.591 5.59C55.591 83.754 53.087 86.257 50 86.257zM68.688 71.243H31.313V23.007h37.375V71.243z" fill="#ffffff" data-fill-palette-color="accent"></path></svg></g></svg></g></svg></g></svg></g><g></g></svg></g><defs></defs></svg><rect width="395.52" height="203.44748648942192" fill="none" stroke="none" visibility="hidden"></rect></g></svg></g></svg>